Coordinates
version=1
nRows=14
nColumns=36
inDegrees=yes

Units are S.I. units (second, meters, Newtons, ...)
If the header above contains a line with 'inDegrees', this indicates whether rotational values are in degrees (yes) or radians (no).

endheader
time	pelvis_tilt	pelvis_list	pelvis_rotation	pelvis_tx	pelvis_ty	pelvis_tz	hip_flexion_r	hip_adduction_r	hip_rotation_r	knee_angle_r	knee_angle_r_beta	ankle_angle_r	subtalar_angle_r	mtp_angle_r	hip_flexion_l	hip_adduction_l	hip_rotation_l	knee_angle_l	knee_angle_l_beta	ankle_angle_l	subtalar_angle_l	mtp_angle_l	lumbar_extension	lumbar_bending	lumbar_rotation	arm_flex_r	arm_add_r	arm_rot_r	elbow_flex_r	pro_sup_r	arm_flex_l	arm_add_l	arm_rot_l	elbow_flex_l	pro_sup_l
      1.46666670	      6.85100247	     -0.69458816	      4.13213397	      0.43859865	      1.25486837	     -0.21742827	     -8.15579643	      2.13803209	      6.57402087	      5.95649215	      0.10396040	      9.74028845	     -4.48008886	     -7.49999987	    -11.04625042	     -2.14813791	     -3.79254990	      4.98279804	      0.08696623	     10.84946127	     -2.93568470	     -7.49999987	    -11.04415617	      1.82359918	     -5.94773828	     12.99031853	    -12.91296428	     22.39741353	     21.12851861	     95.37021198	     -9.73636478	    -14.05337654	     -5.61905311	     29.12273506	     97.83159371
      1.48333330	      6.64494267	     -0.72571218	      4.12318878	      0.43889473	      1.25190454	     -0.21735819	     -7.88785855	      2.16084778	      6.57824945	      5.93682382	      0.10361712	      9.75936959	     -4.41665744	     -7.49999987	    -10.77442489	     -2.16256186	     -3.82651699	      5.05602236	      0.08824424	     10.96923689	     -2.93339491	     -7.49999987	    -11.24716285	      1.84016454	     -5.77941464	     13.27283750	    -13.09782898	     24.23155747	     20.39501418	     93.52832369	     -9.72922550	    -14.36977253	     -4.49287428	     29.00126051	     95.87965405
      1.50000000	      6.42097535	     -0.75156321	      4.12000396	      0.43855197	      1.25158827	     -0.21755190	     -7.57858845	      2.18843813	      6.66846088	      5.96793090	      0.10416004	      9.67252480	     -4.58921309	     -7.49999987	    -10.50746167	     -2.16327020	     -3.97962848	      5.09043872	      0.08884492	     10.94857336	     -2.87893763	     -7.49999987	    -11.48883352	      1.85320567	     -5.43891380	     13.24479570	    -13.17304879	     24.22490113	     19.96092455	     91.97523128	     -9.65964922	    -14.27539894	     -5.15606881	     28.56405693	     94.36377809
      1.51666670	      6.21579529	     -0.79196900	      4.18795544	      0.43864985	      1.24900618	     -0.21790613	     -7.30437163	      2.22262948	      6.61255886	      5.97087402	      0.10421141	      9.67962734	     -4.50889094	     -7.49999987	    -10.22627080	     -2.17563349	     -3.91655388	      5.24499923	      0.09154251	     10.84723815	     -3.07089857	     -7.49999987	    -11.88990171	      1.84578738	     -5.64397222	     13.29736939	    -13.28233487	     24.08773934	     19.50931255	     96.05885639	    -10.12017723	    -14.13496687	     -7.60696096	     29.22723159	     98.94629972
      1.53333330	      5.98665112	     -0.82595239	      4.19261504	      0.43922875	      1.25201314	     -0.21791786	     -6.99047880	      2.24155568	      6.65125256	      6.00120313	      0.10474075	      9.71777528	     -4.45128601	     -7.49999987	     -9.87724274	     -2.17503587	     -4.01463520	      5.51409371	      0.09623909	     10.82136854	     -3.19737164	     -7.49999987	    -12.22271178	      1.83206619	     -5.42345720	     12.96510354	    -13.45480870	     23.75492952	     19.05143447	     96.46341455	    -10.12157043	    -14.26378654	     -7.64601993	     29.01507605	     99.23550925
      1.55000000	      5.90155341	     -0.83445690	      4.15286703	      0.44799429	      1.25260913	     -0.22132387	     -6.92409019	      2.22867874	      6.70954143	      5.99126270	      0.10456726	      9.74064324	     -4.42107733	     -7.49999987	     -9.78444161	     -2.12099090	     -4.11478071	      5.67191891	      0.09899366	     10.80758043	     -3.26445391	     -7.49999987	    -12.64737136	      1.77929169	     -5.41873625	     12.41701699	    -13.74955306	     23.75510247	     18.77755007	     96.47233121	    -10.67951103	    -14.36333165	     -7.68494505	     28.77961659	     99.23096383
      1.56666670	      5.76738380	     -0.85168447	      4.09289343	      0.44894773	      1.25837378	     -0.22116811	     -6.84520534	      2.22157665	      6.73946195	      6.02791757	      0.10520701	      9.82761580	     -4.40365928	     -7.49999987	     -9.61896547	     -2.08377511	     -4.30349170	      5.95919049	      0.10400749	     10.72366974	     -3.35526959	     -7.49999987	    -12.97620897	      1.72235151	     -5.45766472	     11.73955641	    -14.04759790	     23.76810169	     18.48804128	     96.45439733	    -11.19210928	    -14.45133155	     -7.73403138	     28.58256541	     99.17980615
      1.58333330	      5.42656693	     -0.85918413	      3.99595943	      0.44934959	      1.25526702	     -0.22111746	     -6.51995202	      2.18867878	      6.78743774	      6.08008047	      0.10611742	     10.03452190	     -4.28976721	     -7.49999987	     -9.20527456	     -2.00502633	     -4.43581001	      6.31825518	      0.11027436	     10.73947520	     -3.50515567	     -7.49999987	    -12.98443813	      1.66144017	     -5.20643067	     11.04091517	    -14.26932796	     23.40347119	     17.65794103	     97.75295101	    -11.53697980	    -14.37205465	     -8.88003702	     27.97799661	     99.69788026
      1.60000000	      5.22666083	     -0.87415077	      3.87503982	      0.44968576	      1.25489676	     -0.22109852	     -6.32683182	      2.16574639	      6.74541290	      6.12191831	      0.10684763	     10.15843423	     -4.31777600	     -7.49999987	     -8.96265038	     -1.94856181	     -4.52999868	      6.62385593	      0.11560810	     10.80356266	     -3.52181203	     -7.49999987	    -13.38349386	      1.60194339	     -5.20032450	     10.49799568	    -14.50125372	     23.11100417	     17.06386112	     98.07377007	    -12.28791964	    -14.31526406	     -9.89345965	     27.55546485	     99.61838914
      1.61666670	      5.14463457	     -0.87058417	      3.77259399	      0.45773289	      1.25556548	     -0.22473405	     -6.30237412	      2.12167432	      6.73472265	      6.17865397	      0.10783786	     10.24403961	     -4.34603653	     -7.49999987	     -8.91205871	     -1.84727636	     -4.59387049	      6.86247450	      0.11977277	     10.78790528	     -3.57933530	     -7.49999987	    -13.88538229	      1.54540666	     -5.07062849	      9.93238344	    -14.93990825	     23.09499938	     16.77882113	     98.07733955	    -13.15688414	    -14.35383779	     -9.93129462	     27.15797739	     99.61229777
      1.63333330	      4.86342029	     -0.88869562	      3.62255154	      0.45786251	      1.25498750	     -0.22465667	     -5.92180380	      2.10380157	      6.84954891	      6.46852118	      0.11289699	     10.56501650	     -4.36570837	     -7.49999987	     -8.39973989	     -1.77980598	     -4.74930330	      7.50463157	      0.13098053	     11.06178346	     -3.69184321	     -7.49999987	    -14.24156082	      1.48496711	     -4.65081329	      9.29757758	    -15.41391272	     22.95468710	     16.47289112	     98.39586907	    -13.64507678	    -14.13753034	    -11.05410003	     26.19464377	     99.41552516
      1.65000000	      4.59699607	     -0.89450972	      3.51581764	      0.45782774	      1.24913869	     -0.22467743	     -5.55347695	      2.06879757	      6.86532671	      6.78925539	      0.11849486	     10.91254966	     -4.33562192	     -7.49999987	     -7.83826088	     -1.71018363	     -4.71106148	      8.19396705	      0.14301170	     11.34808677	     -3.97125497	     -7.49999987	    -14.72572752	      1.41827421	     -4.29568319	      8.51369080	    -15.97902145	     22.84763496	     16.78102291	     97.55585967	    -14.44228880	    -14.10037479	    -11.28247366	     25.34343226	     98.49403729
      1.66666670	      4.27262713	     -0.94065189	      3.41585058	      0.45877642	      1.25170243	     -0.22437517	     -5.04412440	      2.08454482	      7.00711096	      7.16774936	      0.12510083	     11.12839356	     -4.54806722	     -7.49999987	     -7.07019200	     -1.73971387	     -4.92777305	      8.97373380	      0.15662120	     11.82656885	     -3.86041343	     -7.49999987	    -15.32486752	      1.35341994	     -3.84956898	      7.92638373	    -16.52746459	     23.45645955	     16.88249263	     95.85055517	    -14.94230174	    -14.09362006	    -11.20910870	     24.72831853	     96.62096167
      1.68333330	      3.87271260	     -0.95990020	      3.43969006	      0.45932920	      1.25190047	     -0.22436604	     -4.46554934	      2.04047984	      6.80183055	      7.58915000	      0.13245565	     11.51005729	     -4.39277390	     -7.49999987	     -6.20489667	     -1.73275183	     -4.88947485	      9.73767309	      0.16995446	     12.03226637	     -4.10501348	     -7.49999987	    -15.85730344	      1.24474581	     -3.47569747	      7.49160094	    -17.08297636	     25.14836107	     16.56550526	     95.35458961	    -15.27143500	    -14.35734778	    -10.00842063	     24.06101936	     95.87299020
